<svg width="406" height="139" viewBox="0 0 406 139" fill="none" xmlns="http://www.w3.org/2000/svg">
<path fill-rule="evenodd" clip-rule="evenodd" d="M103.357 49.5801C128.101 31.8928 163.372 16.3875 202.503 7.61059C277.268 -9.17863 337.816 4.91105 337.723 39.1289C337.72 40.3203 337.644 41.5204 337.496 42.7278H338.585H343.712H351.077H359.513H364.641H365.713H377.901H383.052H386.641V42.7515H405.029L400.182 55.8466H381.77H378.181H373.054H360.842H359.77H354.642H346.206H344.807H333.276C332.171 58.0123 330.87 60.1859 329.383 62.3601H342.407H343.572H343.642C345.623 62.4075 347.091 64.0414 347.161 65.8885L347.581 64.7281C348.117 63.3073 349.469 62.3601 350.96 62.3601H369.512H370.42H370.654V62.3838H379.323H397.735L392.887 75.4789H374.476H368.23H365.759H364.617H363.219H349.026C347.255 75.4789 345.017 76.9471 344.038 78.7468C343.06 80.5465 343.712 82.0146 345.483 82.0146H363.219H363.312V81.991H390.463L385.592 95.0861H360.912H358.441H341.475C339.471 95.0861 337.956 93.4521 337.886 91.5577L337.466 92.7181C336.93 94.1389 335.578 95.0861 334.087 95.0861H314.65H314.207H292.949C268.913 110.391 237.076 123.573 202.177 131.41C127.412 148.2 66.8641 134.086 66.9573 99.9158C66.9643 96.543 67.5618 93.1023 68.7043 89.6237L62.9253 93.3327L60.2219 95.085H56.19H51.4356H46.6813H13.5406H4.75436H0L4.87089 81.9899H9.62525H18.3882H51.5289H52.9039L69.4276 71.4049L75.6735 67.3792L60.5948 55.8233H19.6933H14.5427L19.4136 42.7282H24.5409H66.0483H71.1988L75.3007 45.8777L87.373 55.1129L90.729 57.6704L94.7143 55.1129L103.357 49.5801ZM115.344 42.7282H119.209H157.943H160.739H163.093H165.89H204.67H209.332H209.798C215.857 42.4204 220.402 44.67 221.101 47.701C221.241 48.293 221.334 49.335 220.658 50.8031L220.448 51.3951L219.982 52.6502L218.514 56.5811L217.559 59.1149L215.578 64.4666L215.391 64.9402C213.83 68.5869 210.427 75.2174 205.206 75.762C205.113 75.762 205.014 75.7679 204.915 75.7738C204.816 75.7798 204.717 75.7857 204.624 75.7857H202.759H201.128L201.594 94.564H184.208L183.719 75.4542H154.423H143.307H139.275H113.965L122.448 82.0136H163.326H164.305L159.434 95.1087H158.479H115.829H112.753H111.797L109.537 93.3564L97.4643 84.0737L93.3392 80.9243L88.3052 77.0407L82.269 80.9243L77.3515 84.0737L72.4002 87.2516C72.1825 88.5745 72.0684 89.8918 72.0613 91.2015C71.9215 121.844 130.349 136.691 202.596 124.401C236.399 118.64 267.232 107.96 290.489 95.0861H287.056L291.927 81.991H310.532C313.276 79.84 315.807 77.6581 318.107 75.4552H311.644H298.872C296.705 75.4552 295.19 73.2293 295.959 71.1691L298.476 64.3966L299.245 62.3601L299.804 60.8209C299.874 61.7444 300.55 62.3601 301.692 62.3601H328.834C330.124 60.1876 331.168 58.0135 331.952 55.8466H305.211C303.673 55.8466 301.808 56.9359 300.69 58.4041L301.645 55.8466L303.626 50.5186L305.864 44.4565C306.26 43.4145 307.239 42.7278 308.334 42.7278H311.643H323.949H329.099H329.845H331.686H333.353C328.667 14.7695 272.218 1.70745 203.132 13.4596C169.385 19.2087 138.588 29.874 115.344 42.7282ZM318.21 75.4552C315.967 77.6506 313.552 79.8317 310.975 81.991H319.078H323.39H324.368C326.14 81.991 328.377 80.5228 329.356 78.7231C330.335 76.9234 329.682 75.4552 327.911 75.4552H323.39H321.945H321.502H321.222H319.358H318.21ZM200.802 59.0912C200.266 60.8909 198.378 62.359 196.607 62.359H193.763H190.804H159.271H148.154H144.122H111.238L121.399 55.8233H153.095H155.915H158.246H161.042H196.28H198.588C200.359 55.8233 201.338 57.2915 200.802 59.0912ZM239.046 55.8229H270.695H275.823L280.693 42.7278H275.543H243.917H241.493H232.451C231.682 42.7278 229.538 42.8462 227.463 44.3617C225.762 45.5931 224.946 47.2034 224.503 48.1506C222.802 51.8683 216.952 67.4499 209.448 88.7857C209.192 89.946 209.355 90.7748 209.518 91.2721C210.31 93.6401 213.293 95.203 216.952 95.0846H224.41H224.48H261.257L266.127 81.9895H229.328L239.046 55.8229ZM284.958 42.7278L265.545 95.0846H282.931L302.345 42.7278H284.958ZM12.1422 62.3582H58.8002L53.9526 75.4534H7.27134L12.1422 62.3582Z" fill="#FAFAFA"/>
</svg>
