<svg width="616" height="137" viewBox="0 0 616 137" fill="none" xmlns="http://www.w3.org/2000/svg">
<path d="M0 0H153.193L180.471 73.7692H0V0Z" fill="#527182"/>
<path d="M68.4644 36.7393C68.4644 43.2544 67.1976 48.7503 64.664 53.227C62.1303 57.6847 58.7109 61.0661 54.4056 63.3711C50.1003 65.6571 45.2997 66.8001 40.0039 66.8001C34.6699 66.8001 29.8503 65.6476 25.545 63.3425C21.2587 61.0184 17.8488 57.6275 15.3152 53.1699C12.8006 48.6931 11.5433 43.2163 11.5433 36.7393C11.5433 30.2242 12.8006 24.7379 15.3152 20.2802C17.8488 15.8034 21.2587 12.4221 25.545 10.1361C29.8503 7.83106 34.6699 6.67854 40.0039 6.67854C45.2997 6.67854 50.1003 7.83106 54.4056 10.1361C58.7109 12.4221 62.1303 15.8034 64.664 20.2802C67.1976 24.7379 68.4644 30.2242 68.4644 36.7393ZM52.1196 36.7393C52.1196 33.2341 51.6529 30.2814 50.7194 27.8811C49.805 25.4618 48.443 23.633 46.6332 22.3947C44.8425 21.1374 42.6328 20.5088 40.0039 20.5088C37.375 20.5088 35.1557 21.1374 33.3459 22.3947C31.5552 23.633 30.1932 25.4618 29.2597 27.8811C28.3453 30.2814 27.8881 33.2341 27.8881 36.7393C27.8881 40.2445 28.3453 43.2068 29.2597 45.6261C30.1932 48.0264 31.5552 49.8552 33.3459 51.1125C35.1557 52.3507 37.375 52.9698 40.0039 52.9698C42.6328 52.9698 44.8425 52.3507 46.6332 51.1125C48.443 49.8552 49.805 48.0264 50.7194 45.6261C51.6529 43.2068 52.1196 40.2445 52.1196 36.7393ZM99.6765 46.7977V22.109H115.45V66H100.477V57.6561H100.019C99.0669 60.4565 97.4 62.6472 95.0188 64.2283C92.6376 65.7904 89.8086 66.5715 86.5321 66.5715C83.465 66.5715 80.779 65.8666 78.4739 64.4569C76.1879 63.0473 74.4068 61.1042 73.1304 58.6277C71.8731 56.1512 71.235 53.3127 71.2159 50.1124V22.109H86.9893V46.7977C87.0083 48.9694 87.5608 50.6743 88.6466 51.9126C89.7515 53.1508 91.2945 53.7699 93.2757 53.7699C94.5902 53.7699 95.7236 53.4937 96.6761 52.9413C97.6477 52.3698 98.3906 51.5697 98.905 50.541C99.4384 49.4932 99.6955 48.2455 99.6765 46.7977ZM118.644 66V22.109H133.96V30.4528H134.418C135.218 27.3668 136.484 25.1093 138.218 23.6806C139.971 22.2518 142.018 21.5375 144.362 21.5375C145.047 21.5375 145.724 21.5946 146.39 21.7089C147.076 21.8042 147.733 21.9471 148.362 22.1375V35.5963C147.581 35.3296 146.619 35.1296 145.476 34.9962C144.333 34.8629 143.352 34.7962 142.533 34.7962C140.99 34.7962 139.599 35.1486 138.361 35.8535C137.142 36.5393 136.18 37.5108 135.475 38.7681C134.77 40.0064 134.418 41.4637 134.418 43.1401V66H118.644Z" fill="#F5F5F5"/>
<mask id="path-3-outside-1_1158_3088" maskUnits="userSpaceOnUse" x="185" y="-4" width="294" height="72" fill="black">
<rect fill="white" x="185" y="-4" width="294" height="72"/>
<path d="M208.933 63H191.788L220.82 4.47864H242.537L252.138 63H234.993L229.278 20.5949H228.821L208.933 63ZM209.618 39.9115H241.851L239.794 51.7986H207.561L209.618 39.9115ZM281.078 4.47864L271.362 63H255.589L265.304 4.47864H281.078ZM308.646 43.7977L312.761 19.109H328.534L321.219 63H306.246L307.617 54.6561H307.16C305.807 57.4565 303.788 59.6472 301.102 61.2283C298.435 62.7904 295.463 63.5715 292.187 63.5715C289.12 63.5715 286.557 62.8666 284.5 61.4569C282.443 60.0473 280.985 58.1042 280.128 55.6277C279.271 53.1512 279.099 50.3127 279.614 47.1124L284.3 19.109H300.073L295.959 43.7977C295.635 45.9694 295.911 47.6743 296.787 48.9126C297.683 50.1508 299.121 50.7699 301.102 50.7699C302.416 50.7699 303.598 50.4937 304.645 49.9413C305.712 49.3698 306.588 48.5697 307.274 47.541C307.979 46.4932 308.436 45.2455 308.646 43.7977ZM326.941 63L334.257 19.109H349.23L347.858 27.4528H348.315C349.668 24.7096 351.583 22.538 354.059 20.9378C356.536 19.3376 359.307 18.5375 362.374 18.5375C365.441 18.5375 367.956 19.3566 369.918 20.9949C371.88 22.6142 372.871 24.7668 372.89 27.4528H373.347C374.528 24.7668 376.462 22.6142 379.148 20.9949C381.834 19.3566 384.815 18.5375 388.092 18.5375C392.264 18.5375 395.435 19.89 397.607 22.5951C399.798 25.3002 400.512 28.9006 399.75 33.3964L394.835 63H379.062L383.405 37.3969C383.672 35.4729 383.405 33.9679 382.605 32.8821C381.805 31.7772 380.586 31.2247 378.948 31.2247C377.328 31.2247 375.957 31.7772 374.833 32.8821C373.728 33.9679 373.042 35.4729 372.776 37.3969L368.432 63H353.345L357.688 37.3969C357.955 35.4729 357.688 33.9679 356.888 32.8821C356.088 31.7772 354.869 31.2247 353.23 31.2247C352.164 31.2247 351.192 31.4724 350.316 31.9677C349.458 32.463 348.744 33.1773 348.173 34.1108C347.62 35.0252 347.249 36.1206 347.058 37.3969L342.715 63H326.941ZM420.089 38.3113L415.974 63H400.201L407.516 19.109H422.489L421.118 27.4528H421.575C422.966 24.6525 424.994 22.4713 427.661 20.9092C430.347 19.328 433.31 18.5375 436.548 18.5375C439.653 18.5375 442.235 19.2423 444.292 20.652C446.349 22.0617 447.807 24.0048 448.664 26.4813C449.521 28.9578 449.674 31.7962 449.121 34.9966L444.435 63H428.661L432.776 38.3113C433.138 36.1396 432.871 34.4346 431.976 33.1964C431.1 31.9581 429.652 31.339 427.633 31.339C426.356 31.339 425.185 31.6248 424.118 32.1963C423.07 32.7487 422.194 33.5488 421.489 34.5966C420.803 35.6253 420.337 36.8635 420.089 38.3113ZM449.693 63L457.008 19.109H472.782L465.466 63H449.693ZM465.581 14.537C463.447 14.537 461.723 13.8321 460.409 12.4225C459.094 10.9937 458.608 9.29826 458.951 7.33612C459.294 5.33588 460.342 3.64044 462.095 2.24979C463.847 0.840101 465.79 0.135255 467.924 0.135255C470.077 0.135255 471.791 0.840101 473.067 2.24979C474.344 3.64044 474.82 5.33588 474.496 7.33612C474.191 9.29826 473.163 10.9937 471.41 12.4225C469.676 13.8321 467.733 14.537 465.581 14.537Z"/>
</mask>
<path d="M208.933 63V66.9519H211.444L212.511 64.6781L208.933 63ZM191.788 63L188.247 61.2437L185.416 66.9519H191.788V63ZM220.82 4.47863V0.526713H218.369L217.28 2.72235L220.82 4.47863ZM242.537 4.47863L246.436 3.83883L245.893 0.526713H242.537V4.47863ZM252.138 63V66.9519H256.791L256.038 62.3602L252.138 63ZM234.993 63L231.076 63.5278L231.538 66.9519H234.993V63ZM229.278 20.5949L233.194 20.067L232.733 16.6429H229.278V20.5949ZM228.821 20.5949V16.6429H226.309L225.243 18.9168L228.821 20.5949ZM209.618 39.9115V35.9596H206.292L205.724 39.2375L209.618 39.9115ZM241.851 39.9115L245.745 40.5855L246.546 35.9596H241.851V39.9115ZM239.794 51.7986V55.7506H243.12L243.688 52.4726L239.794 51.7986ZM207.561 51.7986L203.667 51.1247L202.866 55.7506H207.561V51.7986ZM208.933 59.0481H191.788V66.9519H208.933V59.0481ZM195.328 64.7563L224.36 6.23492L217.28 2.72235L188.247 61.2437L195.328 64.7563ZM220.82 8.43056H242.537V0.526713L220.82 0.526713V8.43056ZM238.637 5.11844L248.238 63.6398L256.038 62.3602L246.436 3.83883L238.637 5.11844ZM252.138 59.0481H234.993V66.9519H252.138V59.0481ZM238.909 62.4722L233.194 20.067L225.361 21.1227L231.076 63.5278L238.909 62.4722ZM229.278 16.6429H228.821V24.5468H229.278V16.6429ZM225.243 18.9168L205.355 61.3219L212.511 64.6781L232.399 22.2729L225.243 18.9168ZM209.618 43.8634H241.851V35.9596H209.618V43.8634ZM237.957 39.2375L235.899 51.1247L243.688 52.4726L245.745 40.5855L237.957 39.2375ZM239.794 47.8467H207.561V55.7506H239.794V47.8467ZM211.455 52.4726L213.512 40.5855L205.724 39.2375L203.667 51.1247L211.455 52.4726ZM281.078 4.47863L284.976 5.12586L285.74 0.526713H281.078V4.47863ZM271.362 63V66.9519H274.712L275.261 63.6472L271.362 63ZM255.589 63L251.69 62.3528L250.927 66.9519H255.589V63ZM265.304 4.47863V0.526713H261.954L261.406 3.83141L265.304 4.47863ZM277.179 3.83141L267.464 62.3528L275.261 63.6472L284.976 5.12586L277.179 3.83141ZM271.362 59.0481H255.589V66.9519H271.362V59.0481ZM259.487 63.6472L269.203 5.12586L261.406 3.83141L251.69 62.3528L259.487 63.6472ZM265.304 8.43056H281.078V0.526713H265.304V8.43056ZM308.646 43.7977L304.748 43.148L304.741 43.1897L304.735 43.2316L308.646 43.7977ZM312.761 19.109V15.1571H309.413L308.862 18.4593L312.761 19.109ZM328.534 19.109L332.432 19.7587L333.199 15.1571H328.534V19.109ZM321.219 63V66.9519H324.567L325.117 63.6497L321.219 63ZM306.246 63L302.346 62.359L301.591 66.9519H306.246V63ZM307.617 54.6561L311.517 55.2972L312.272 50.7042H307.617V54.6561ZM307.16 54.6561V50.7042H304.68L303.601 52.9374L307.16 54.6561ZM301.102 61.2283L303.099 64.6384L303.107 64.634L301.102 61.2283ZM284.5 61.4569L282.266 64.717L284.5 61.4569ZM280.128 55.6277L276.394 56.9204L280.128 55.6277ZM279.614 47.1124L275.716 46.4601L275.714 46.4727L275.712 46.4853L279.614 47.1124ZM284.3 19.109V15.1571H280.954L280.402 18.4567L284.3 19.109ZM300.073 19.109L303.972 19.7587L304.738 15.1571H300.073V19.109ZM295.959 43.7977L292.06 43.148L292.055 43.1813L292.05 43.2148L295.959 43.7977ZM296.787 48.9126L293.561 51.1955L293.573 51.2119L293.585 51.2282L296.787 48.9126ZM304.645 49.9413L306.489 53.437L306.5 53.431L306.512 53.4248L304.645 49.9413ZM307.274 47.541L303.995 45.3351L303.991 45.342L303.986 45.3488L307.274 47.541ZM312.544 44.4474L316.659 19.7587L308.862 18.4593L304.748 43.148L312.544 44.4474ZM312.761 23.0609H328.534V15.1571H312.761V23.0609ZM324.636 18.4593L317.321 62.3503L325.117 63.6497L332.432 19.7587L324.636 18.4593ZM321.219 59.0481H306.246V66.9519H321.219V59.0481ZM310.145 63.641L311.517 55.2972L303.718 54.0151L302.346 62.359L310.145 63.641ZM307.617 50.7042H307.16V58.608H307.617V50.7042ZM303.601 52.9374C302.589 55.0325 301.112 56.6369 299.097 57.8227L303.107 64.634C306.465 62.6575 309.025 59.8805 310.719 56.3749L303.601 52.9374ZM299.105 57.8183C297.08 59.004 294.805 59.6196 292.187 59.6196V67.5234C296.122 67.5234 299.79 66.5768 303.099 64.6384L299.105 57.8183ZM292.187 59.6196C289.732 59.6196 287.996 59.0616 286.734 58.1969L282.266 64.717C285.119 66.6717 288.507 67.5234 292.187 67.5234V59.6196ZM286.734 58.1969C285.411 57.2907 284.458 56.0552 283.863 54.335L276.394 56.9204C277.513 60.1531 279.474 62.8038 282.266 64.717L286.734 58.1969ZM283.863 54.335C283.263 52.6042 283.081 50.4462 283.516 47.7394L275.712 46.4853C275.118 50.1793 275.278 53.6982 276.394 56.9204L283.863 54.335ZM283.511 47.7646L288.198 19.7612L280.402 18.4567L275.716 46.4601L283.511 47.7646ZM284.3 23.0609H300.073V15.1571H284.3V23.0609ZM296.175 18.4593L292.06 43.148L299.857 44.4474L303.972 19.7587L296.175 18.4593ZM292.05 43.2148C291.643 45.9452 291.878 48.8172 293.561 51.1955L300.013 46.6297C299.944 46.5314 299.627 45.9935 299.867 44.3805L292.05 43.2148ZM293.585 51.2282C295.437 53.7894 298.267 54.7219 301.102 54.7219V46.818C300.511 46.818 300.213 46.7245 300.1 46.6757C300.019 46.6409 300.009 46.6232 299.99 46.597L293.585 51.2282ZM301.102 54.7219C302.987 54.7219 304.812 54.3208 306.489 53.437L302.802 46.4455C302.383 46.6666 301.846 46.818 301.102 46.818V54.7219ZM306.512 53.4248C308.164 52.5395 309.524 51.2905 310.562 49.7331L303.986 45.3488C303.653 45.8488 303.26 46.2 302.779 46.4577L306.512 53.4248ZM310.553 49.7468C311.638 48.1346 312.276 46.3058 312.557 44.3638L304.735 43.2316C304.597 44.1851 304.32 44.8519 303.995 45.3351L310.553 49.7468ZM326.941 63L323.043 62.3503L322.276 66.9519H326.941V63ZM334.257 19.109V15.1571H330.909L330.358 18.4593L334.257 19.109ZM349.23 19.109L353.129 19.75L353.884 15.1571H349.23V19.109ZM347.858 27.4528L343.959 26.8118L343.204 31.4048H347.858V27.4528ZM348.315 27.4528V31.4048H350.773L351.86 29.2005L348.315 27.4528ZM354.059 20.9378L351.914 17.6185V17.6185L354.059 20.9378ZM369.918 20.9949L367.385 24.0285L367.394 24.0357L367.403 24.043L369.918 20.9949ZM372.89 27.4528L368.938 27.4809L368.966 31.4048H372.89V27.4528ZM373.347 27.4528V31.4048H375.926L376.965 29.0436L373.347 27.4528ZM379.148 20.9949L381.188 24.3794L381.197 24.3741L381.206 24.3688L379.148 20.9949ZM397.607 22.5951L394.525 25.0691L394.531 25.0757L394.536 25.0823L397.607 22.5951ZM399.75 33.3964L395.854 32.736L395.852 32.7492L399.75 33.3964ZM394.835 63V66.9519H398.185L398.734 63.6472L394.835 63ZM379.062 63L375.166 62.339L374.383 66.9519H379.062V63ZM383.405 37.3969L387.302 38.0579L387.312 37.9988L387.32 37.9395L383.405 37.3969ZM382.605 32.8821L379.404 35.1999L379.414 35.2132L379.424 35.2263L382.605 32.8821ZM374.833 32.8821L377.603 35.7007L377.603 35.7003L374.833 32.8821ZM372.776 37.3969L376.672 38.0579L376.682 37.9988L376.69 37.9395L372.776 37.3969ZM368.432 63V66.9519H371.77L372.328 63.661L368.432 63ZM353.345 63L349.448 62.339L348.666 66.9519H353.345V63ZM357.688 37.3969L361.584 38.0579L361.594 37.9988L361.603 37.9395L357.688 37.3969ZM356.888 32.8821L353.687 35.1999L353.697 35.2132L353.706 35.2263L356.888 32.8821ZM350.316 31.9677L348.371 28.5273L348.355 28.5365L348.339 28.5458L350.316 31.9677ZM348.173 34.1108L344.802 32.0473L344.796 32.0572L344.79 32.0672L348.173 34.1108ZM347.058 37.3969L350.954 38.0579L350.961 38.0191L350.967 37.9803L347.058 37.3969ZM342.715 63V66.9519H346.053L346.611 63.661L342.715 63ZM330.84 63.6497L338.155 19.7587L330.358 18.4593L323.043 62.3503L330.84 63.6497ZM334.257 23.0609H349.23V15.1571H334.257V23.0609ZM345.33 18.4679L343.959 26.8118L351.758 28.0939L353.129 19.75L345.33 18.4679ZM347.858 31.4048H348.315V23.5009H347.858V31.4048ZM351.86 29.2005C352.909 27.073 354.35 25.4546 356.204 24.257L351.914 17.6185C348.815 19.6213 346.427 22.3463 344.771 25.7052L351.86 29.2005ZM356.204 24.2571C358.015 23.087 360.036 22.4894 362.374 22.4894V14.5856C358.579 14.5856 355.056 15.5882 351.914 17.6185L356.204 24.2571ZM362.374 22.4894C364.708 22.4894 366.269 23.0964 367.385 24.0285L372.451 17.9614C369.643 15.6168 366.174 14.5856 362.374 14.5856V22.4894ZM367.403 24.043C368.407 24.8714 368.927 25.8897 368.938 27.4809L376.842 27.4248C376.815 23.6439 375.354 20.3569 372.433 17.9469L367.403 24.043ZM372.89 31.4048H373.347V23.5009H372.89V31.4048ZM376.965 29.0436C377.795 27.1564 379.149 25.6084 381.188 24.3794L377.107 17.6104C373.774 19.6199 371.262 22.3772 369.729 25.8621L376.965 29.0436ZM381.206 24.3688C383.245 23.1246 385.51 22.4894 388.092 22.4894V14.5856C384.121 14.5856 380.422 15.5886 377.09 17.621L381.206 24.3688ZM388.092 22.4894C391.335 22.4894 393.258 23.49 394.525 25.0691L400.689 20.1211C397.613 16.29 393.192 14.5856 388.092 14.5856V22.4894ZM394.536 25.0823C395.807 26.6517 396.489 28.9912 395.854 32.736L403.647 34.0568C404.536 28.8101 403.789 23.9487 400.678 20.1079L394.536 25.0823ZM395.852 32.7492L390.937 62.3527L398.734 63.6472L403.649 34.0437L395.852 32.7492ZM394.835 59.0481H379.062V66.9519H394.835V59.0481ZM382.958 63.661L387.302 38.0579L379.509 36.7359L375.166 62.339L382.958 63.661ZM387.32 37.9395C387.666 35.4439 387.423 32.7585 385.787 30.5378L379.424 35.2263C379.425 35.2284 379.436 35.2424 379.451 35.2797C379.467 35.3186 379.493 35.3929 379.514 35.5148C379.559 35.7672 379.582 36.1963 379.491 36.8543L387.32 37.9395ZM385.806 30.5642C384.109 28.22 381.565 27.2728 378.948 27.2728V35.1766C379.136 35.1766 379.266 35.1926 379.348 35.2084C379.388 35.2162 379.416 35.2238 379.434 35.2293C379.451 35.2348 379.459 35.2384 379.46 35.2387C379.46 35.2389 379.455 35.2367 379.447 35.2314C379.438 35.2261 379.429 35.2194 379.419 35.2117C379.399 35.1947 379.394 35.1858 379.404 35.1999L385.806 30.5642ZM378.948 27.2728C376.324 27.2728 373.948 28.2105 372.063 30.0639L377.603 35.7003C377.966 35.3439 378.333 35.1766 378.948 35.1766V27.2728ZM372.063 30.0634C370.192 31.9019 369.217 34.2893 368.861 36.8543L376.69 37.9395C376.868 36.6565 377.264 36.0339 377.603 35.7007L372.063 30.0634ZM368.879 36.7359L364.536 62.339L372.328 63.661L376.672 38.0579L368.879 36.7359ZM368.432 59.0481H353.345V66.9519H368.432V59.0481ZM357.241 63.661L361.584 38.0579L353.792 36.7359L349.448 62.339L357.241 63.661ZM361.603 37.9395C361.948 35.4439 361.706 32.7585 360.069 30.5378L353.706 35.2263C353.708 35.2284 353.718 35.2424 353.734 35.2797C353.75 35.3186 353.775 35.3929 353.797 35.5148C353.841 35.7672 353.865 36.1963 353.774 36.8543L361.603 37.9395ZM360.089 30.5642C358.391 28.22 355.848 27.2728 353.23 27.2728V35.1766C353.419 35.1766 353.549 35.1926 353.63 35.2084C353.671 35.2162 353.699 35.2238 353.716 35.2293C353.734 35.2348 353.742 35.2384 353.742 35.2387C353.743 35.2389 353.738 35.2367 353.729 35.2314C353.721 35.2261 353.711 35.2194 353.702 35.2117C353.681 35.1947 353.677 35.1858 353.687 35.1999L360.089 30.5642ZM353.23 27.2728C351.524 27.2728 349.876 27.6765 348.371 28.5273L352.26 35.4081C352.508 35.2683 352.803 35.1766 353.23 35.1766V27.2728ZM348.339 28.5458C346.853 29.4044 345.681 30.6125 344.802 32.0473L351.543 36.1743C351.808 35.7422 352.064 35.5215 352.293 35.3895L348.339 28.5458ZM344.79 32.0672C343.918 33.5114 343.402 35.1254 343.15 36.8135L350.967 37.9803C351.096 37.1157 351.323 36.5389 351.555 36.1544L344.79 32.0672ZM343.162 36.7359L338.819 62.339L346.611 63.661L350.954 38.0579L343.162 36.7359ZM342.715 59.0481H326.941V66.9519H342.715V59.0481ZM420.089 38.3113L416.194 37.645L416.192 37.6533L416.191 37.6616L420.089 38.3113ZM415.974 63V66.9519H419.322L419.872 63.6497L415.974 63ZM400.201 63L396.303 62.3503L395.536 66.9519H400.201V63ZM407.516 19.109V15.1571H404.168L403.618 18.4593L407.516 19.109ZM422.489 19.109L426.389 19.75L427.144 15.1571H422.489V19.109ZM421.118 27.4528L417.218 26.8118L416.463 31.4048H421.118V27.4528ZM421.575 27.4528V31.4048H424.025L425.114 29.2106L421.575 27.4528ZM427.661 20.9092L429.659 24.3192L429.666 24.3149L427.661 20.9092ZM444.292 20.652L446.526 17.3919L446.526 17.3919L444.292 20.652ZM448.664 26.4813L452.398 25.1886L448.664 26.4813ZM449.121 34.9966L445.227 34.3244L445.225 34.3343L445.223 34.3443L449.121 34.9966ZM444.435 63V66.9519H447.78L448.333 63.6523L444.435 63ZM428.661 63L424.763 62.3503L423.996 66.9519H428.661V63ZM432.776 38.3113L436.674 38.961L432.776 38.3113ZM431.976 33.1964L428.75 35.4793L428.762 35.4957L428.774 35.512L431.976 33.1964ZM424.118 32.1963L425.961 35.692L425.973 35.686L425.984 35.6798L424.118 32.1963ZM421.489 34.5966L418.21 32.3907L418.206 32.3975L418.201 32.4044L421.489 34.5966ZM416.191 37.6616L412.076 62.3503L419.872 63.6497L423.987 38.961L416.191 37.6616ZM415.974 59.0481H400.201V66.9519H415.974V59.0481ZM404.099 63.6497L411.414 19.7587L403.618 18.4593L396.303 62.3503L404.099 63.6497ZM407.516 23.0609H422.489V15.1571H407.516V23.0609ZM418.59 18.4679L417.218 26.8118L425.017 28.0939L426.389 19.75L418.59 18.4679ZM421.118 31.4048H421.575V23.5009H421.118V31.4048ZM425.114 29.2106C426.167 27.0909 427.664 25.4877 429.659 24.3192L425.664 17.4991C422.325 19.4549 419.764 22.2141 418.035 25.6951L425.114 29.2106ZM429.666 24.3149C431.72 23.1057 433.986 22.4894 436.548 22.4894V14.5856C432.633 14.5856 428.974 15.5504 425.657 17.5035L429.666 24.3149ZM436.548 22.4894C439.052 22.4894 440.804 23.0527 442.058 23.9121L446.526 17.3919C443.665 15.432 440.254 14.5856 436.548 14.5856V22.4894ZM442.058 23.9121C443.381 24.8183 444.334 26.0537 444.929 27.774L452.398 25.1886C451.279 21.9559 449.318 19.3052 446.526 17.3919L442.058 23.9121ZM444.929 27.774C445.522 29.4856 445.692 31.6266 445.227 34.3244L453.015 35.6688C453.655 31.9659 453.52 28.4299 452.398 25.1886L444.929 27.774ZM445.223 34.3443L440.537 62.3477L448.333 63.6523L453.019 35.6489L445.223 34.3443ZM444.435 59.0481H428.661V66.9519H444.435V59.0481ZM432.56 63.6497L436.674 38.961L428.878 37.6616L424.763 62.3503L432.56 63.6497ZM436.674 38.961C437.133 36.2094 436.922 33.2914 435.179 30.8808L428.774 35.512C428.821 35.5778 429.143 36.0698 428.878 37.6616L436.674 38.961ZM435.202 30.9135C433.352 28.2987 430.469 27.3871 427.633 27.3871V35.2909C428.253 35.2909 428.564 35.3877 428.679 35.437C428.733 35.4598 428.748 35.4739 428.745 35.471C428.74 35.4673 428.741 35.466 428.75 35.4793L435.202 30.9135ZM427.633 27.3871C425.742 27.3871 423.924 27.8169 422.252 28.7127L425.984 35.6798C426.446 35.4327 426.971 35.2909 427.633 35.2909V27.3871ZM422.275 28.7005C420.611 29.5777 419.255 30.8378 418.21 32.3907L424.768 36.8024C425.133 36.2598 425.529 35.9197 425.961 35.692L422.275 28.7005ZM418.201 32.4044C417.156 33.9719 416.517 35.7527 416.194 37.645L423.984 38.9776C424.156 37.9742 424.451 37.2786 424.777 36.7887L418.201 32.4044ZM449.693 63L445.795 62.3503L445.028 66.9519H449.693V63ZM457.008 19.109V15.1571H453.661L453.11 18.4593L457.008 19.109ZM472.782 19.109L476.68 19.7587L477.447 15.1571H472.782V19.109ZM465.466 63V66.9519H468.814L469.365 63.6497L465.466 63ZM460.409 12.4225L457.5 15.0981L457.509 15.1079L457.518 15.1175L460.409 12.4225ZM458.951 7.33612L462.844 8.01644L462.847 8.00386L458.951 7.33612ZM462.095 2.24979L464.551 5.34555L464.561 5.3374L464.572 5.32919L462.095 2.24979ZM473.067 2.24979L470.138 4.90223L470.147 4.91215L470.156 4.92201L473.067 2.24979ZM474.496 7.33612L470.595 6.70451L470.593 6.717L470.591 6.72951L474.496 7.33612ZM471.41 12.4225L473.903 15.4886L473.907 15.4855L471.41 12.4225ZM453.591 63.6497L460.906 19.7587L453.11 18.4593L445.795 62.3503L453.591 63.6497ZM457.008 23.0609H472.782V15.1571H457.008V23.0609ZM468.883 18.4593L461.568 62.3503L469.365 63.6497L476.68 19.7587L468.883 18.4593ZM465.466 59.0481H449.693V66.9519H465.466V59.0481ZM465.581 10.5851C464.413 10.5851 463.782 10.245 463.299 9.72738L457.518 15.1175C459.665 17.4193 462.481 18.4889 465.581 18.4889V10.5851ZM463.317 9.74678C462.86 9.24989 462.707 8.80455 462.844 8.01644L455.058 6.65581C454.51 9.79198 455.329 12.7375 457.5 15.0981L463.317 9.74678ZM462.847 8.00386C463.008 7.06346 463.476 6.1984 464.551 5.34555L459.638 -0.845962C457.208 1.08248 455.581 3.60831 455.056 6.66839L462.847 8.00386ZM464.572 5.32919C465.663 4.45122 466.742 4.08718 467.924 4.08718V-3.81667C464.838 -3.81667 462.031 -2.77101 459.618 -0.829599L464.572 5.32919ZM467.924 4.08718C469.123 4.08718 469.714 4.43365 470.138 4.90223L475.997 -0.402641C473.869 -2.75345 471.03 -3.81667 467.924 -3.81667V4.08718ZM470.156 4.92201C470.547 5.34818 470.742 5.79788 470.595 6.70451L478.397 7.96773C478.898 4.87389 478.14 1.9327 475.979 -0.422423L470.156 4.92201ZM470.591 6.72951C470.457 7.59277 470.021 8.45585 468.913 9.35939L473.907 15.4855C476.304 13.5316 477.926 11.0038 478.401 7.94274L470.591 6.72951ZM468.917 9.35634C467.859 10.2166 466.789 10.5851 465.581 10.5851V18.4889C468.678 18.4889 471.494 17.4477 473.903 15.4886L468.917 9.35634Z" fill="#F5F5F5" mask="url(#path-3-outside-1_1158_3088)"/>
<path d="M206.817 134.365L180.471 74.428H611.889V134.365H206.817Z" fill="#FAFAFA"/>
<path d="M201.873 91.4425V81.4487H241.58V91.4425H227.839V127.135H215.614V91.4425H201.873ZM257.876 127.759C254.217 127.759 251.064 127.06 248.417 125.662C245.785 124.249 243.755 122.227 242.327 119.595C240.915 116.947 240.208 113.78 240.208 110.092C240.208 106.552 240.922 103.459 242.35 100.812C243.777 98.1645 245.792 96.1048 248.395 94.6325C250.998 93.1602 254.069 92.424 257.608 92.424C260.196 92.424 262.538 92.8256 264.635 93.6286C266.732 94.4317 268.524 95.5991 270.011 97.1309C271.498 98.6478 272.643 100.492 273.446 102.663C274.249 104.834 274.651 107.281 274.651 110.002V112.858H244.045V106.076H263.319C263.304 105.095 263.051 104.232 262.56 103.489C262.084 102.73 261.437 102.143 260.62 101.726C259.816 101.295 258.902 101.079 257.876 101.079C256.879 101.079 255.965 101.295 255.132 101.726C254.299 102.143 253.63 102.723 253.124 103.466C252.633 104.21 252.373 105.08 252.343 106.076V113.393C252.343 114.494 252.574 115.475 253.035 116.338C253.496 117.2 254.158 117.877 255.02 118.368C255.883 118.858 256.924 119.104 258.143 119.104C258.991 119.104 259.764 118.985 260.463 118.747C261.177 118.509 261.787 118.167 262.293 117.721C262.798 117.26 263.17 116.709 263.408 116.07H274.651C274.264 118.449 273.35 120.517 271.907 122.271C270.465 124.011 268.554 125.365 266.174 126.331C263.809 127.283 261.043 127.759 257.876 127.759ZM310.995 104.024H299.663C299.604 103.325 299.358 102.723 298.927 102.217C298.496 101.711 297.938 101.325 297.254 101.057C296.585 100.774 295.841 100.633 295.023 100.633C293.967 100.633 293.06 100.827 292.302 101.213C291.543 101.6 291.172 102.15 291.186 102.864C291.172 103.37 291.387 103.838 291.833 104.269C292.294 104.701 293.179 105.035 294.488 105.273L301.448 106.522C304.958 107.162 307.568 108.24 309.278 109.757C311.003 111.259 311.873 113.274 311.888 115.802C311.873 118.241 311.144 120.36 309.702 122.16C308.274 123.945 306.318 125.328 303.835 126.309C301.366 127.276 298.548 127.759 295.38 127.759C290.145 127.759 286.048 126.688 283.089 124.547C280.144 122.405 278.501 119.58 278.159 116.07H290.383C290.547 117.156 291.082 117.996 291.989 118.591C292.912 119.171 294.071 119.461 295.469 119.461C296.6 119.461 297.529 119.267 298.258 118.881C299.001 118.494 299.381 117.944 299.396 117.23C299.381 116.576 299.054 116.055 298.414 115.668C297.789 115.282 296.808 114.969 295.469 114.732L289.402 113.661C285.907 113.051 283.29 111.891 281.55 110.181C279.81 108.471 278.947 106.27 278.962 103.578C278.947 101.198 279.572 99.1832 280.836 97.5324C282.115 95.8668 283.936 94.6027 286.301 93.7402C288.681 92.8627 291.499 92.424 294.756 92.424C299.708 92.424 303.612 93.4502 306.467 95.5025C309.337 97.5547 310.847 100.395 310.995 104.024ZM337.04 92.8702V101.793H314.464V92.8702H337.04ZM318.837 84.661H331.15V116.115C331.15 116.59 331.232 116.992 331.396 117.319C331.559 117.632 331.812 117.869 332.154 118.033C332.496 118.182 332.935 118.256 333.47 118.256C333.842 118.256 334.273 118.212 334.764 118.122C335.27 118.033 335.642 117.959 335.88 117.899L337.664 126.555C337.114 126.718 336.326 126.919 335.3 127.157C334.288 127.395 333.084 127.551 331.686 127.625C328.86 127.774 326.488 127.484 324.57 126.755C322.651 126.012 321.209 124.844 320.242 123.253C319.275 121.662 318.807 119.669 318.837 117.275V84.661ZM342.064 127.135V92.8702H354.378V127.135H342.064ZM348.221 89.301C346.556 89.301 345.128 88.7507 343.938 87.6502C342.748 86.5497 342.154 85.2261 342.154 83.6795C342.154 82.1328 342.748 80.8092 343.938 79.7087C345.128 78.6082 346.556 78.058 348.221 78.058C349.902 78.058 351.329 78.6082 352.504 79.7087C353.694 80.8092 354.289 82.1328 354.289 83.6795C354.289 85.2261 353.694 86.5497 352.504 87.6502C351.329 88.7507 349.902 89.301 348.221 89.301ZM360.652 127.135V92.8702H372.341V99.384H372.698C373.412 97.2424 374.631 95.5471 376.357 94.2978C378.082 93.0486 380.134 92.424 382.513 92.424C384.923 92.424 386.997 93.0635 388.737 94.3425C390.477 95.6066 391.526 97.2871 391.883 99.384H392.239C392.819 97.2871 394.054 95.6066 395.943 94.3425C397.831 93.0635 400.047 92.424 402.59 92.424C405.877 92.424 408.539 93.4799 410.576 95.5917C412.629 97.7035 413.655 100.514 413.655 104.024V127.135H401.341V107.147C401.341 105.645 400.962 104.47 400.203 103.622C399.445 102.76 398.426 102.329 397.147 102.329C395.883 102.329 394.879 102.76 394.136 103.622C393.407 104.47 393.043 105.645 393.043 107.147V127.135H381.264V107.147C381.264 105.645 380.885 104.47 380.126 103.622C379.368 102.76 378.349 102.329 377.07 102.329C376.223 102.329 375.494 102.522 374.884 102.909C374.274 103.295 373.799 103.853 373.457 104.582C373.129 105.295 372.966 106.151 372.966 107.147V127.135H360.652ZM436.235 127.759C432.518 127.759 429.335 127.023 426.688 125.551C424.041 124.064 422.011 121.996 420.598 119.349C419.185 116.687 418.479 113.601 418.479 110.092C418.479 106.582 419.185 103.503 420.598 100.856C422.011 98.1942 424.041 96.1271 426.688 94.6548C429.335 93.1676 432.518 92.424 436.235 92.424C439.953 92.424 443.136 93.1676 445.783 94.6548C448.43 96.1271 450.46 98.1942 451.873 100.856C453.286 103.503 453.992 106.582 453.992 110.092C453.992 113.601 453.286 116.687 451.873 119.349C450.46 121.996 448.43 124.064 445.783 125.551C443.136 127.023 439.953 127.759 436.235 127.759ZM436.325 118.658C437.366 118.658 438.265 118.308 439.024 117.609C439.782 116.91 440.37 115.914 440.786 114.62C441.203 113.326 441.411 111.787 441.411 110.002C441.411 108.203 441.203 106.664 440.786 105.385C440.37 104.091 439.782 103.094 439.024 102.395C438.265 101.697 437.366 101.347 436.325 101.347C435.224 101.347 434.28 101.697 433.492 102.395C432.703 103.094 432.101 104.091 431.685 105.385C431.268 106.664 431.06 108.203 431.06 110.002C431.06 111.787 431.268 113.326 431.685 114.62C432.101 115.914 432.703 116.91 433.492 117.609C434.28 118.308 435.224 118.658 436.325 118.658ZM471.303 107.861V127.135H458.989V92.8702H470.678V99.384H471.035C471.779 97.2127 473.087 95.5099 474.961 94.2755C476.85 93.0412 479.051 92.424 481.564 92.424C483.988 92.424 486.093 92.9817 487.877 94.0971C489.677 95.1976 491.067 96.7145 492.049 98.6478C493.045 100.581 493.536 102.79 493.521 105.273V127.135H481.207V107.861C481.222 106.165 480.791 104.834 479.914 103.868C479.051 102.901 477.846 102.418 476.3 102.418C475.289 102.418 474.404 102.641 473.645 103.087C472.902 103.518 472.329 104.143 471.928 104.961C471.526 105.764 471.318 106.731 471.303 107.861ZM499.6 127.135V92.8702H511.914V127.135H499.6ZM505.757 89.301C504.091 89.301 502.664 88.7507 501.474 87.6502C500.284 86.5497 499.689 85.2261 499.689 83.6795C499.689 82.1328 500.284 80.8092 501.474 79.7087C502.664 78.6082 504.091 78.058 505.757 78.058C507.437 78.058 508.865 78.6082 510.04 79.7087C511.23 80.8092 511.825 82.1328 511.825 83.6795C511.825 85.2261 511.23 86.5497 510.04 87.6502C508.865 88.7507 507.437 89.301 505.757 89.301ZM527.735 127.67C525.549 127.67 523.616 127.313 521.935 126.599C520.27 125.87 518.961 124.77 518.009 123.298C517.057 121.825 516.582 119.951 516.582 117.676C516.582 115.802 516.901 114.204 517.541 112.88C518.18 111.542 519.073 110.448 520.218 109.601C521.363 108.753 522.694 108.106 524.211 107.66C525.743 107.214 527.393 106.924 529.163 106.79C531.081 106.641 532.621 106.463 533.781 106.255C534.956 106.032 535.803 105.727 536.324 105.34C536.844 104.939 537.104 104.411 537.104 103.756V103.667C537.104 102.775 536.762 102.091 536.078 101.615C535.394 101.139 534.517 100.901 533.446 100.901C532.271 100.901 531.312 101.161 530.568 101.682C529.84 102.187 529.401 102.968 529.252 104.024H517.92C518.069 101.942 518.731 100.023 519.905 98.2686C521.095 96.4989 522.828 95.086 525.103 94.0302C527.378 92.9594 530.219 92.424 533.625 92.424C536.078 92.424 538.279 92.714 540.228 93.294C542.176 93.8591 543.834 94.6548 545.202 95.6809C546.57 96.6922 547.611 97.8819 548.325 99.2501C549.054 100.603 549.418 102.076 549.418 103.667V127.135H537.908V122.316H537.64C536.956 123.595 536.123 124.629 535.141 125.417C534.175 126.205 533.067 126.778 531.818 127.135C530.583 127.491 529.223 127.67 527.735 127.67ZM531.751 119.907C532.688 119.907 533.565 119.714 534.383 119.327C535.216 118.94 535.892 118.383 536.413 117.654C536.933 116.925 537.194 116.04 537.194 114.999V112.144C536.867 112.278 536.517 112.404 536.145 112.523C535.788 112.642 535.402 112.754 534.985 112.858C534.584 112.962 534.152 113.058 533.691 113.148C533.245 113.237 532.777 113.319 532.286 113.393C531.334 113.542 530.554 113.787 529.944 114.129C529.349 114.456 528.903 114.865 528.605 115.356C528.323 115.832 528.181 116.367 528.181 116.962C528.181 117.914 528.516 118.643 529.185 119.148C529.855 119.654 530.71 119.907 531.751 119.907ZM567.616 81.4487V127.135H555.302V81.4487H567.616ZM605.209 104.024H593.877C593.818 103.325 593.572 102.723 593.141 102.217C592.71 101.711 592.152 101.325 591.468 101.057C590.799 100.774 590.055 100.633 589.237 100.633C588.181 100.633 587.274 100.827 586.516 101.213C585.757 101.6 585.385 102.15 585.4 102.864C585.385 103.37 585.601 103.838 586.047 104.269C586.508 104.701 587.393 105.035 588.702 105.273L595.662 106.522C599.171 107.162 601.781 108.24 603.492 109.757C605.217 111.259 606.087 113.274 606.102 115.802C606.087 118.241 605.358 120.36 603.916 122.16C602.488 123.945 600.532 125.328 598.049 126.309C595.58 127.276 592.762 127.759 589.594 127.759C584.359 127.759 580.262 126.688 577.303 124.547C574.358 122.405 572.715 119.58 572.373 116.07H584.597C584.761 117.156 585.296 117.996 586.203 118.591C587.125 119.171 588.285 119.461 589.683 119.461C590.814 119.461 591.743 119.267 592.472 118.881C593.215 118.494 593.595 117.944 593.609 117.23C593.595 116.576 593.267 116.055 592.628 115.668C592.003 115.282 591.022 114.969 589.683 114.732L583.616 113.661C580.121 113.051 577.503 111.891 575.763 110.181C574.023 108.471 573.161 106.27 573.176 103.578C573.161 101.198 573.786 99.1832 575.05 97.5324C576.329 95.8668 578.15 94.6027 580.515 93.7402C582.894 92.8627 585.713 92.424 588.97 92.424C593.922 92.424 597.826 93.4502 600.681 95.5025C603.551 97.5547 605.061 100.395 605.209 104.024Z" fill="#15394A"/>
</svg>
